<?xml version="1.0" encoding="utf-8"?>
<!-- Generator: Adobe Illustrator 16.0.3, SVG Export Plug-In . SVG Version: 6.00 Build 0)  -->
<!DOCTYPE svg PUBLIC "-//W3C//DTD SVG 1.1//EN" "http://www.w3.org/Graphics/SVG/1.1/DTD/svg11.dtd">
<svg version="1.1" id="Layer_1" xmlns="http://www.w3.org/2000/svg" xmlns:xlink="http://www.w3.org/1999/xlink" x="0px" y="0px"
	 width="1000px" height="1000px" viewBox="0 0 1000 1000" enable-background="new 0 0 1000 1000" xml:space="preserve">
<g>
	<rect x="0.117" y="0.033" fill="#FFFFFF" width="1000.883" height="1000.876"/>
	<g>
		<path fill="none" d="M464.754,511.088c-1.817-0.971-3.857-1.482-5.899-1.482c-4.646,0-8.889,2.543-11.076,6.637
			c-1.578,2.955-1.912,6.348-0.94,9.555c0.976,3.208,3.14,5.843,6.096,7.421c1.814,0.971,3.854,1.483,5.896,1.483
			c4.646,0,8.892-2.544,11.079-6.639c1.578-2.956,1.912-6.35,0.939-9.555C469.875,515.302,467.71,512.666,464.754,511.088z
			 M464.551,525.2c-1.13,2.11-3.317,3.421-5.71,3.421c-1.057,0-2.108-0.266-3.044-0.765c-3.144-1.68-4.335-5.604-2.655-8.749
			c1.129-2.11,3.316-3.422,5.707-3.422c1.057,0,2.108,0.264,3.044,0.762C465.036,518.128,466.227,522.054,464.551,525.2z"/>
		<path fill="none" d="M502.109,481.793c-2.58-1.378-5.478-2.105-8.381-2.105c-6.604,0-12.634,3.614-15.741,9.433
			c-4.632,8.668-1.345,19.491,7.328,24.123c2.58,1.379,5.477,2.107,8.381,2.107c6.6,0,12.635-3.614,15.74-9.432
			C514.065,497.247,510.778,486.424,502.109,481.793z M498.371,500.008c-1.375,2.571-4.574,3.545-7.147,2.17
			s-3.546-4.575-2.17-7.148c1.375-2.572,4.573-3.547,7.146-2.17C498.773,494.231,499.746,497.432,498.371,500.008z"/>
		<g>
			<circle fill="#9059A4" cx="493.712" cy="497.518" r="5.282"/>
			<path fill="#9059A4" d="M461.893,516.447c-0.937-0.498-1.987-0.762-3.044-0.762c-2.39,0-4.577,1.312-5.707,3.422
				c-1.68,3.145-0.488,7.069,2.655,8.749c0.936,0.499,1.987,0.765,3.044,0.765c2.393,0,4.58-1.311,5.71-3.421
				C466.227,522.054,465.036,518.128,461.893,516.447z"/>
			<path fill="#9059A4" d="M553.749,527.863c-1.02-0.542-2.161-0.83-3.307-0.83c-2.132,0-4.1,0.968-5.422,2.574l-1.408-1.158
				c1.932-4.086,0.36-9.02-3.67-11.175c-1.234-0.659-2.625-1.007-4.017-1.007c-3.163,0-6.054,1.731-7.54,4.518
				c-1.077,2.014-1.303,4.325-0.642,6.509c0.32,1.061,0.842,2.024,1.516,2.864l-2.534,2.678c-0.599-0.459-1.231-0.885-1.912-1.249
				c-2.01-1.071-4.266-1.638-6.528-1.638c-1.964,0-3.843,0.444-5.568,1.212l-8.535-16.074c0.569-0.341,1.129-0.697,1.663-1.092
				l1.692-1.378c1.68-1.541,3.117-3.374,4.229-5.455c1.393-2.604,2.146-5.379,2.343-8.15l5.339-0.631
				c0.646,3.14,2.63,5.983,5.671,7.609c1.614,0.861,3.428,1.316,5.248,1.316c4.135,0,7.913-2.263,9.861-5.906
				c2.897-5.43,0.838-12.205-4.59-15.106c-1.614-0.861-3.428-1.317-5.248-1.317c-4.135,0-7.913,2.264-9.858,5.907
				c-0.906,1.699-1.329,3.53-1.313,5.333l-5.074,0.599c-0.256-7.054-4.129-13.796-10.791-17.355
				c-1.411-0.751-2.904-1.322-4.443-1.727l3.82-17.614c3.189,0.18,6.349-1.438,7.953-4.441c2.2-4.124,0.642-9.253-3.48-11.455
				c-4.121-2.202-9.252-0.645-11.455,3.479c-2.2,4.124-0.642,9.253,3.48,11.455c0.442,0.236,0.901,0.409,1.362,0.56l-3.814,17.585
				c-1.008-0.154-2.026-0.258-3.048-0.258c-6.761,0-12.994,3.308-16.795,8.764l-2.387-2.083c0.082-0.136,0.173-0.261,0.249-0.4
				c1.074-2.012,1.3-4.323,0.639-6.507c-0.665-2.184-2.138-3.978-4.148-5.05c-1.237-0.661-2.628-1.01-4.02-1.01
				c-3.163,0-6.05,1.73-7.54,4.518c-2.219,4.156-0.645,9.342,3.51,11.562c1.237,0.658,2.625,1.007,4.017,1.007
				c2.259,0,4.368-0.896,5.939-2.415l2.577,2.25c-0.036,0.065-0.076,0.127-0.112,0.194c-3.604,6.745-3.018,14.623,0.825,20.658
				l-5.818,4.079c-1.264-1.566-2.838-2.879-4.665-3.856c-2.197-1.174-4.669-1.792-7.144-1.792c-5.622,0-10.758,3.077-13.407,8.033
				c-1.912,3.577-2.315,7.687-1.133,11.566c1.178,3.882,3.798,7.072,7.376,8.984c2.196,1.172,4.665,1.793,7.14,1.793
				c5.625,0,10.761-3.078,13.41-8.035c1.908-3.578,2.314-7.685,1.136-11.566c-0.36-1.183-0.871-2.293-1.483-3.331l5.847-4.101
				c1.68,2.106,3.805,3.917,6.329,5.266c2.96,1.582,6.289,2.417,9.625,2.417c3.074,0,6.03-0.701,8.709-1.962l8.537,16.077
				c-0.137,0.087-0.287,0.152-0.422,0.242l-1.705,1.36c-1.094,1.026-2.053,2.215-2.783,3.583c-1.748,3.271-2.118,7.026-1.041,10.575
				s3.471,6.464,6.74,8.211c1.229,0.655,2.558,1.098,3.916,1.361c0,0,1.723,0.278,2.616,0.278c5.14,0,9.835-2.815,12.254-7.345
				c1.749-3.272,2.115-7.027,1.041-10.575c-0.638-2.095-1.745-3.963-3.208-5.508l2.498-2.641c0.334,0.247,0.671,0.498,1.045,0.697
				c1.237,0.66,2.625,1.007,4.02,1.007c2.557,0,4.921-1.145,6.525-3.051l1.482,1.219c-1.273,3.269,0.04,7.051,3.209,8.743
				c1.015,0.542,2.157,0.83,3.303,0.83c2.604,0,4.98-1.424,6.207-3.717C558.463,533.956,557.166,529.69,553.749,527.863z
				 M522.862,492.128c1.483-2.781,4.367-4.51,7.527-4.51c1.388,0,2.77,0.348,4.004,1.007c4.145,2.213,5.716,7.386,3.503,11.531
				c-1.486,2.781-4.371,4.51-7.53,4.51c-1.389,0-2.773-0.349-4.004-1.007C522.217,501.445,520.646,496.273,522.862,492.128z
				 M472.876,482.302c-1.113,2.077-3.267,3.369-5.625,3.369c-1.035,0-2.069-0.26-2.989-0.751c-3.097-1.656-4.272-5.52-2.619-8.616
				c1.109-2.078,3.264-3.367,5.621-3.367c1.038,0,2.072,0.261,2.992,0.752c1.5,0.799,2.6,2.137,3.094,3.764
				C473.846,479.08,473.675,480.802,472.876,482.302z M469.911,528.063c-2.188,4.095-6.434,6.639-11.079,6.639
				c-2.043,0-4.083-0.513-5.896-1.483c-2.956-1.578-5.121-4.213-6.096-7.421c-0.972-3.207-0.638-6.6,0.94-9.555
				c2.187-4.094,6.43-6.637,11.076-6.637c2.042,0,4.083,0.512,5.899,1.482c2.957,1.578,5.121,4.214,6.096,7.42
				C471.822,521.713,471.488,525.106,469.911,528.063z M485.314,513.243c-8.673-4.632-11.96-15.455-7.328-24.123
				c3.107-5.818,9.138-9.433,15.741-9.433c2.904,0,5.801,0.727,8.381,2.105c8.669,4.631,11.956,15.454,7.326,24.126
				c-3.105,5.817-9.141,9.432-15.74,9.432C490.792,515.351,487.894,514.622,485.314,513.243z M522.601,546.14
				c-0.857,1.603-2.518,2.596-4.331,2.596c-0.799,0-1.598-0.198-2.305-0.579c-1.156-0.615-2.001-1.645-2.385-2.898
				c-0.379-1.254-0.252-2.582,0.367-3.736c0.855-1.6,2.515-2.593,4.328-2.593c0.803,0,1.598,0.2,2.309,0.578
				C522.967,540.779,523.871,543.755,522.601,546.14z M541.533,527.811c-1.109,2.077-3.264,3.367-5.621,3.367
				c-1.037,0-2.072-0.26-2.995-0.753c-1.5-0.8-2.597-2.136-3.091-3.764c-0.494-1.629-0.324-3.349,0.479-4.85
				c1.109-2.077,3.264-3.367,5.621-3.367c1.037,0,2.072,0.259,2.992,0.75C542.015,520.851,543.187,524.716,541.533,527.811z"/>
		</g>
	</g>
</g>
<rect x="1" y="-1" fill="none" width="1000" height="1000"/>
</svg>
